<?xml version="1.0" encoding="UTF-8"?>
<svg id="Layer_1" data-name="Layer 1" xmlns="http://www.w3.org/2000/svg" xmlns:xlink="http://www.w3.org/1999/xlink" viewBox="0 0 720 360">
  <defs>
    <style>
      .cls-1 {
        fill: url(#linear-gradient-2);
      }

      .cls-2 {
        fill: none;
        stroke: url(#linear-gradient);
        stroke-miterlimit: 10;
        stroke-width: 2.04px;
      }

      .cls-3 {
        fill: url(#linear-gradient-4);
      }

      .cls-4 {
        fill: url(#linear-gradient-3);
      }

      .cls-5 {
        fill: url(#linear-gradient-5);
      }

      .cls-6 {
        fill: navy;
      }

      .cls-7 {
        fill: url(#linear-gradient-7);
      }

      .cls-8 {
        fill: url(#linear-gradient-6);
      }
    </style>
    <linearGradient id="linear-gradient" x1="447.23" y1="116.92" x2="621.17" y2="116.92" gradientUnits="userSpaceOnUse">
      <stop offset="0" stop-color="#ffa245"/>
      <stop offset="1" stop-color="#f7711e"/>
    </linearGradient>
    <linearGradient id="linear-gradient-2" x1="384.59" y1="162.32" x2="415.53" y2="162.32" xlink:href="#linear-gradient"/>
    <linearGradient id="linear-gradient-3" x1="159.27" y1="121.4" x2="234.43" y2="121.4" xlink:href="#linear-gradient"/>
    <linearGradient id="linear-gradient-4" x1="181.02" y1="126.35" x2="274.68" y2="126.35" xlink:href="#linear-gradient"/>
    <linearGradient id="linear-gradient-5" x1="134.04" y1="152.75" x2="170.83" y2="152.75" xlink:href="#linear-gradient"/>
    <linearGradient id="linear-gradient-6" x1="106.86" y1="191.26" x2="183.93" y2="191.26" xlink:href="#linear-gradient"/>
    <linearGradient id="linear-gradient-7" x1="279.78" y1="112.9" x2="442.89" y2="112.9" xlink:href="#linear-gradient"/>
  </defs>
  <line class="cls-2" x1="447.23" y1="116.92" x2="621.17" y2="116.92"/>
  <path class="cls-6" d="M160.81,264.34l10.11-22.43c10.85,7.91,27.03,13.42,42.48,13.42,17.65,0,24.82-5.88,24.82-13.79,0-24.09-74.84-7.54-74.84-55.35,0-21.88,17.65-40.09,54.24-40.09,16.18,0,29.77-.15,46.09,0v2.23c-.85,10.48-10.91,21.43-28.08,21.71-5.55.09-13.07-.04-18.19-.04-17.65,0-24.46,6.62-24.46,14.71,0,23.72,74.84,7.35,74.84,54.61,0,21.51-17.84,39.9-54.61,39.9-20.41,0-41.01-6.07-52.41-14.89Z"/>
  <path class="cls-6" d="M509.91,229.71v48.77h-23.78v-44.97c0-13.78-6.1-20.11-16.61-20.11-11.43,0-19.66,7.28-19.66,22.96v42.12h-23.78v-95.77h6.36c9.03,0,16.35,7.61,16.35,16.99v3.57c6.4-7.28,16-11.24,27.13-11.24,19.36,0,33.99,11.72,33.99,37.68Z"/>
  <path class="cls-6" d="M408.29,182.71h7.24s0,96.39,0,96.39h-30.95v-72.69c0-13.09,10.61-23.71,23.71-23.71Z"/>
  <path class="cls-1" d="M400.38,177.95h0c-8.67.18-15.8-6.8-15.8-15.47v-.32c0-8.55,6.93-15.47,15.47-15.47h0c8.55,0,15.47,6.93,15.47,15.47v.32c0,8.42-6.73,15.29-15.15,15.47Z"/>
  <path class="cls-6" d="M373.93,222.93v56.17h-27.36v-51.8c0-15.87-7.02-23.16-19.12-23.16-13.15,0-22.63,8.39-22.63,26.44v48.51h-27.36v-132.94h0c15.11,0,27.36,9.87,27.36,24.98v20.06c7.37-7.66,17.89-11.67,29.99-11.67,22.28,0,39.11,13.5,39.11,43.41Z"/>
  <path class="cls-6" d="M620.28,240.63h-72.11c2.66,11.87,12.76,19.14,27.29,19.14,10.1,0,17.36-3.01,23.92-9.21l14.71,15.95c-8.86,10.1-22.15,15.41-39.33,15.41-32.96,0-54.39-20.73-54.39-49.08s21.79-49.08,50.85-49.08,49.61,18.78,49.61,49.43c0,2.13-.35,5.14-.53,7.44ZM547.81,224.5h46.95c-1.95-12.05-10.99-19.84-23.39-19.84s-21.62,7.62-23.56,19.84Z"/>
  <path class="cls-4" d="M234.43,103.98c-28.28,3.97-54.01,21.11-69.16,45.13l-6,10.76c1.29-30.31,20.05-60.49,46.76-74.84,1.02-.55,4.01-2.27,4.89-2.09,1.03.21,5.35,3.45,6.52,4.31,6.31,4.66,12.25,10.51,16.99,16.73Z"/>
  <path class="cls-3" d="M274.68,142.14c-25.23-13.39-56.12-14.61-82.48-4.05l-11.17,5.19c18.83-23.78,51.74-37.2,81.79-33.15,1.15.15,4.58.52,5.18,1.18.71.78,2.31,5.93,2.75,7.31,2.37,7.47,3.75,15.69,3.94,23.52Z"/>
  <path class="cls-5" d="M170.83,106.68c-16.65,22.5-23.1,51.94-17.22,79.47l3.54,13.42c-21.54-24.25-29.21-60.44-17.92-91.15,10.32-2.28,21.09-3.33,31.6-1.73Z"/>
  <path class="cls-8" d="M128.04,153.71c3.74,28.31,21.18,54.02,45.13,69.15l10.76,6c-29.59-1.65-57.64-18.36-73.01-43.58-1.02-1.67-3.15-4.97-3.78-6.63-.29-.76-.39-1-.13-1.83.43-1.42,4.67-6.92,5.85-8.43,3.25-4.14,9.86-11.62,14.23-14.3.3-.19.35-.57.96-.39Z"/>
  <path class="cls-7" d="M281.31,110.04c1.02-1.98,2.41-3.5,4.16-4.57,1.75-1.07,3.71-1.6,5.87-1.6,1.89,0,3.54.38,4.96,1.14,1.42.76,2.55,1.72,3.4,2.88v-3.61h6.44v25.32h-6.44v-3.7c-.82,1.19-1.96,2.17-3.4,2.95-1.45.78-3.12,1.17-5.01,1.17-2.13,0-4.07-.55-5.83-1.65-1.75-1.1-3.14-2.64-4.16-4.64-1.02-2-1.53-4.29-1.53-6.88s.51-4.83,1.53-6.81ZM298.79,112.94c-.61-1.11-1.43-1.97-2.47-2.56-1.03-.6-2.15-.89-3.33-.89s-2.29.29-3.29.87c-1.01.58-1.82,1.43-2.44,2.54-.62,1.11-.94,2.43-.94,3.95s.31,2.86.94,4c.62,1.14,1.45,2.02,2.47,2.63,1.02.61,2.11.91,3.27.91s2.3-.3,3.33-.89c1.04-.59,1.86-1.45,2.47-2.56.61-1.11.92-2.44.92-4s-.31-2.89-.92-4ZM312.3,110.04c1.02-1.98,2.41-3.5,4.16-4.57,1.75-1.07,3.71-1.6,5.87-1.6,1.89,0,3.54.38,4.96,1.14,1.42.76,2.55,1.72,3.4,2.88v-3.61h6.44v25.32h-6.44v-3.7c-.82,1.19-1.96,2.17-3.4,2.95-1.45.78-3.12,1.17-5.01,1.17-2.13,0-4.07-.55-5.83-1.65-1.75-1.1-3.14-2.64-4.16-4.64-1.02-2-1.53-4.29-1.53-6.88s.51-4.83,1.53-6.81ZM329.78,112.94c-.61-1.11-1.43-1.97-2.47-2.56-1.03-.6-2.15-.89-3.33-.89s-2.29.29-3.29.87c-1.01.58-1.82,1.43-2.44,2.54-.62,1.11-.94,2.43-.94,3.95s.31,2.86.94,4c.62,1.14,1.45,2.02,2.47,2.63,1.02.61,2.11.91,3.27.91s2.3-.3,3.33-.89c1.04-.59,1.86-1.45,2.47-2.56.61-1.11.92-2.44.92-4s-.31-2.89-.92-4ZM358.39,129.6l-8.59-10.78v10.78h-6.4v-33.82h6.4v19.24l8.5-10.74h8.32l-11.15,12.7,11.24,12.61h-8.32ZM369.98,110.04c1.02-1.98,2.41-3.5,4.16-4.57,1.75-1.07,3.71-1.6,5.87-1.6,1.89,0,3.54.38,4.96,1.14,1.42.76,2.55,1.72,3.4,2.88v-3.61h6.44v25.32h-6.44v-3.7c-.82,1.19-1.96,2.17-3.4,2.95-1.45.78-3.12,1.17-5.01,1.17-2.13,0-4.07-.55-5.83-1.65-1.75-1.1-3.14-2.64-4.16-4.64-1.02-2-1.53-4.29-1.53-6.88s.51-4.83,1.53-6.81ZM387.46,112.94c-.61-1.11-1.43-1.97-2.47-2.56-1.03-.6-2.15-.89-3.33-.89s-2.29.29-3.29.87c-1.01.58-1.82,1.43-2.44,2.54-.62,1.11-.94,2.43-.94,3.95s.31,2.86.94,4c.62,1.14,1.45,2.02,2.47,2.63,1.02.61,2.11.91,3.27.91s2.3-.3,3.33-.89c1.04-.59,1.86-1.45,2.47-2.56.61-1.11.92-2.44.92-4s-.31-2.89-.92-4ZM440.04,106.77c1.9,1.91,2.86,4.56,2.86,7.98v14.85h-6.4v-13.98c0-1.98-.5-3.5-1.51-4.55-1.01-1.05-2.38-1.58-4.11-1.58s-3.12.53-4.14,1.58c-1.02,1.05-1.53,2.57-1.53,4.55v13.98h-6.4v-13.98c0-1.98-.5-3.5-1.51-4.55-1.01-1.05-2.38-1.58-4.11-1.58s-3.16.53-4.18,1.58c-1.02,1.05-1.53,2.57-1.53,4.55v13.98h-6.4v-25.32h6.4v3.06c.82-1.07,1.88-1.9,3.18-2.51s2.72-.92,4.27-.92c1.98,0,3.75.42,5.3,1.26,1.55.84,2.76,2.03,3.61,3.59.82-1.46,2.02-2.64,3.59-3.52,1.57-.88,3.27-1.33,5.1-1.33,3.11,0,5.62.95,7.52,2.86Z"/>
</svg>