<svg width="1024" height="1024" viewBox="0 0 1024 1024" fill="none" xmlns="http://www.w3.org/2000/svg">
<rect width="1024" height="1024" rx="200" fill="#232323"/>
<g clip-path="url(#clip0_104_15)">
<path d="M212.055 438.357C212.055 462.525 218.792 480.433 232.266 492.089C245.74 503.745 264.553 509.568 288.722 509.568C297.277 509.568 305.451 508.817 313.263 507.323C321.066 505.829 327.745 503.479 333.312 500.263L315.994 449.899C311.284 453.105 305.831 454.713 299.637 454.713C295.355 454.713 291.777 453.219 288.893 450.222C286.01 447.225 284.564 443.057 284.564 437.71V393.445H320.495V340.512H284.564V291.432H212.055V340.512H188V393.445H212.055V438.357Z" fill="#25FF00"/>
<path d="M500.282 347.877C483.715 334.432 460.364 327.685 430.2 327.685C416.516 327.685 402.49 329.398 388.179 332.833C373.829 336.22 361.554 341.178 351.268 347.563L374.381 395.348C380.148 391.104 387.085 387.707 395.239 385.252C403.347 382.797 411.378 381.589 419.285 381.589C431.056 381.589 439.553 383.806 444.815 388.297C448.793 391.723 451.248 396.328 452.219 402.094H423.139C404.974 402.094 389.93 404.121 378.083 408.212C366.198 412.266 357.386 418.27 351.62 426.177C345.854 434.094 342.97 443.676 342.97 455.018C342.97 465.075 345.425 474.239 350.335 482.46C355.245 490.681 362.534 497.275 372.126 502.185C381.756 507.095 393.755 509.549 408.066 509.549C423.272 509.549 435.347 506.352 444.321 499.92C450.087 495.829 454.569 490.291 457.804 483.43V506.352H525.165V412.028C525.165 382.759 516.858 361.36 500.291 347.867L500.282 347.877ZM452.647 449.261C450.734 455.027 447.699 459.281 443.521 461.926C439.353 464.619 434.796 465.941 429.876 465.941C424.538 465.941 420.284 464.619 417.211 461.926C414.09 459.271 412.539 455.884 412.539 451.83C412.539 446.92 414.328 443.219 417.839 440.764C421.388 438.309 427.002 437.063 434.681 437.063H452.656V449.261H452.647Z" fill="#25FF00"/>
<path d="M828.616 330.892H756.117V506.362H828.616V330.892Z" fill="#25FF00"/>
<path d="M760.608 306.19C768.516 313.251 779.106 316.781 792.371 316.781C805.636 316.781 816.217 313.203 824.134 306.029C832.042 298.864 836 289.72 836 278.606C836 268.13 832.042 259.575 824.134 252.943C816.217 246.321 805.636 243 792.371 243C779.106 243 768.525 246.53 760.608 253.581C752.691 260.641 748.742 269.414 748.742 279.881C748.742 290.348 752.701 299.13 760.608 306.181V306.19Z" fill="#25FF00"/>
<path d="M362.515 571.416C351.61 565.964 339.421 563.233 325.947 563.233C311.617 563.233 298.628 566.554 286.971 573.176C281.852 576.088 277.208 579.637 273.012 583.824V566.449H204.034V741.919H276.533V659.479C276.533 650.716 277.76 643.76 280.225 638.631C282.68 633.503 286.001 629.811 290.169 627.565C294.336 625.32 298.875 624.197 303.804 624.197C310.427 624.197 315.67 626.5 319.524 631.095C323.378 635.691 325.3 643.446 325.3 654.351V741.928H397.799V641.838C397.799 623.445 394.64 608.478 388.331 596.926C382.022 585.375 373.411 576.878 362.506 571.426L362.515 571.416Z" fill="#25FF00"/>
<path d="M577.928 583.443C561.362 569.96 537.973 563.252 507.846 563.252C494.163 563.252 480.137 564.927 465.826 568.362C451.476 571.787 439.201 576.706 428.915 583.139L452.028 630.924C457.794 626.633 464.741 623.283 472.886 620.828C480.993 618.374 489.025 617.127 496.932 617.127C508.703 617.127 517.2 619.392 522.424 623.873C526.402 627.299 528.895 631.904 529.827 637.67H500.786C482.582 637.67 467.576 639.697 455.682 643.751C443.835 647.842 435.024 653.808 429.219 661.715C423.453 669.632 420.57 679.252 420.57 690.594C420.57 700.652 423.025 709.767 427.935 717.998C432.883 726.257 440.134 732.813 449.763 737.761C459.393 742.671 471.354 745.126 485.704 745.126C500.862 745.126 512.947 741.928 521.958 735.496C527.724 731.367 532.206 725.867 535.441 719.006V741.928H602.802V647.604C602.802 618.297 594.495 596.936 577.928 583.443ZM530.293 684.828C528.343 690.594 525.307 694.809 521.13 697.492C516.962 700.147 512.442 701.508 507.485 701.508C502.146 701.508 497.931 700.147 494.819 697.492C491.736 694.8 490.185 691.45 490.185 687.359C490.185 682.449 491.936 678.786 495.486 676.331C498.997 673.876 504.601 672.629 512.328 672.629H530.293V684.828Z" fill="#25FF00"/>
<path d="M662.947 661.362C650.757 661.362 640.652 665.054 632.63 672.428C624.609 679.803 620.603 689.803 620.603 702.42C620.603 715.037 624.551 724.61 632.468 731.775C643.088 741.385 657.18 742.441 662.947 742.517C659.797 749.787 655.173 758.693 648.34 768.037C648.264 768.142 648.179 768.256 648.103 768.361C643.963 773.984 650.624 781.13 656.524 777.381C660.34 774.964 664.231 772.243 668.142 769.169C671.092 766.857 673.842 764.516 676.383 762.185C687.25 752.251 695.633 739.891 700.743 726.084C700.876 725.723 701 725.371 701.123 725.028C702.836 720.214 703.959 716.103 704.492 712.678C705.025 709.262 705.291 705.836 705.291 702.411C705.291 689.793 701.285 679.793 693.263 672.419C685.242 665.044 675.136 661.353 662.947 661.353V661.362Z" fill="#25FF00"/>
<path d="M738.056 473.306V506.362H669.573V476.741C669.573 472.06 668.602 467.968 666.576 464.229C664.549 460.451 661.941 457.368 658.621 454.951C656.28 453.238 653.863 452.106 651.294 451.44L601.308 435.198C589.404 431.334 578.395 424.893 569.764 415.834C569.707 415.777 569.65 415.72 569.602 415.663C562.856 408.527 557.708 400.543 554.206 391.846C550.657 383.197 548.906 373.53 548.906 363.196V330.882H617.428V357.43C617.428 361.636 618.246 365.537 619.845 368.924C620.939 371.265 622.262 373.406 623.86 375.242C624.564 376.137 625.345 376.993 626.201 377.773C626.22 377.792 626.23 377.802 626.249 377.821C628.637 380.076 631.606 381.618 634.727 382.636L684.141 398.821C694.58 402.237 704.447 407.423 712.631 414.749C713.716 415.72 714.762 416.71 715.771 417.728C723.098 425.054 728.75 433.59 732.49 442.943C736.191 452.335 738.066 462.592 738.066 473.306H738.056Z" fill="#25FF00"/>
<path d="M644.737 461.621L616.01 506.371H536.26L582.724 440.926C582.962 441.078 583.229 441.24 583.505 441.392L584.637 442.096L644.747 461.621H644.737Z" fill="#25FF00"/>
<path d="M743.233 330.882L700.594 392.351C700.165 392.075 699.699 391.846 699.233 391.608L698.415 391.18L637.686 371.303L663.569 330.882H743.242H743.233Z" fill="#25FF00"/>
</g>
<defs>
<clipPath id="clip0_104_15">
<rect width="648" height="536" fill="white" transform="translate(188 243)"/>
</clipPath>
</defs>
</svg>
